# xmcd
#
# Track frame offsets: 
#        150
#        11996
#        28200
#        41885
#        58106
#        72120
#        84472
#        98838
#        112887
#        128192
#        140174
#        157403
#
# Disc length: 2288 seconds
#
# Revision: 2
# Processed by: cddbd v1.5.2PL0 Copyright (c) Steve Scherf et al.
# Submitted via: ExactAudioCopy v0.99pb5
#
DISCID=b108ee0c
DTITLE=Glen Campbell - See You There
DYEAR=2013
DGENRE=Country
TTITLE0=Hey Little One
TTITLE1=Wichita Lineman
TTITLE2=Gentle On My Mind
TTITLE3=Postcard From Paris
TTITLE4=Waiting On The Comin' Of My Lord
TTITLE5=What I Wouldn't Give
TTITLE6=Galveston
TTITLE7=By The Time I Get To Phoenix
TTITLE8=There's No Me...Without You
TTITLE9=True Grit
TTITLE10=Rhinestone Cowboy
TTITLE11=Waiting On The Comin' Of My Lord (featuring José Hernandez and 
TTITLE11=Mariachi Del Sol De Mexico)
EXTD=c2013 Surfdog Records - The Record Copmany - Love Da Records\nPro
EXTD=duced by Dave Darling and Dave Kaplan
EXTT0=
EXTT1=
EXTT2=
EXTT3=
EXTT4=
EXTT5=
EXTT6=
EXTT7=
EXTT8=
EXTT9=
EXTT10=
EXTT11=
PLAYORDER=
